<?xml version="1.0" standalone="no"?>
<!DOCTYPE svg PUBLIC "-//W3C//DTD SVG 20010904//EN"
 "http://www.w3.org/TR/2001/REC-SVG-20010904/DTD/svg10.dtd">
<svg version="1.0" xmlns="http://www.w3.org/2000/svg"
 width="567.000000pt" height="1440.000000pt" viewBox="0 0 567.000000 1440.000000"
 preserveAspectRatio="xMidYMid meet">
<metadata>
Created by potrace 1.15, written by Peter Selinger 2001-2017
</metadata>
<g transform="translate(0.000000,1440.000000) scale(0.100000,-0.100000)"
fill="#ffffff" stroke="none">
<path d="M2372 10938 c-63 -31 -137 -102 -166 -160 -71 -142 6 -338 162 -415
100 -49 255 -36 400 34 89 44 94 63 16 63 l-56 0 26 47 c15 25 24 49 21 52 -4
3 -21 -3 -38 -13 -110 -65 -152 -81 -219 -81 -79 0 -110 18 -148 86 -47 85
-25 196 49 241 65 41 140 31 299 -39 18 -8 14 19 -8 47 -11 14 -20 29 -20 33
0 5 27 7 60 5 95 -5 73 28 -61 92 -59 28 -72 30 -169 29 -85 0 -113 -4 -148
-21z"/>
<path d="M3195 10933 c-180 -66 -258 -153 -256 -282 2 -159 73 -253 229 -301
51 -16 92 -20 206 -20 124 0 148 3 197 23 79 33 138 79 179 138 34 50 35 55
35 143 0 50 -2 102 -5 116 -4 22 2 29 62 60 38 19 68 39 68 43 0 5 -29 5 -65
2 -36 -4 -65 -5 -65 -2 0 3 5 18 12 32 17 37 5 40 -45 11 l-45 -27 -52 33
c-43 27 -63 33 -109 32 -123 0 -238 -102 -202 -180 23 -52 150 -80 241 -54 48
14 56 2 41 -65 -21 -94 -103 -154 -222 -163 -119 -8 -227 36 -264 107 -23 45
-19 112 8 152 28 43 101 92 161 110 25 7 46 16 46 20 0 4 -15 12 -32 19 l-33
11 40 34 40 35 -50 -1 c-28 0 -81 -11 -120 -26z"/>
<path d="M1630 10875 c-24 -25 -47 -45 -50 -45 -3 0 -22 16 -43 35 -51 47 -60
45 -53 -12 3 -27 13 -145 22 -263 18 -235 24 -257 84 -297 44 -30 82 -30 335
7 114 17 209 30 211 30 2 0 4 4 4 8 0 5 -25 14 -55 21 -30 7 -55 17 -55 22 0
5 18 21 40 35 75 50 53 52 -181 13 -145 -24 -154 -24 -179 1 -19 19 -20 33
-20 255 0 129 -4 235 -8 235 -4 0 -28 -20 -52 -45z"/>
<path d="M4050 10865 c-19 -51 -97 -591 -87 -602 3 -2 23 12 47 32 23 19 45
35 49 35 4 0 22 -20 40 -45 18 -25 35 -45 39 -45 4 0 16 69 26 153 10 83 21
170 25 191 l6 39 85 -115 c47 -63 117 -160 155 -216 77 -111 93 -122 181 -122
l53 0 16 53 c24 84 113 457 121 512 l7 49 -29 -18 c-16 -10 -41 -30 -56 -43
l-26 -25 -21 47 c-12 26 -21 51 -21 56 0 16 -19 9 -24 -8 -6 -23 -51 -239 -67
-323 -6 -36 -15 -71 -18 -77 -4 -8 -40 37 -89 111 -245 368 -261 386 -359 386
-37 0 -45 -4 -53 -25z"/>
<path d="M1035 10825 c-5 -2 -36 -11 -68 -20 -50 -14 -60 -21 -72 -48 -23 -58
-114 -641 -101 -654 3 -4 24 11 46 32 l40 39 28 -27 c15 -15 30 -27 33 -27 3
0 12 39 19 88 19 127 15 122 111 149 46 12 91 23 99 23 10 0 33 -34 60 -90 44
-89 63 -108 75 -71 12 38 29 42 79 20 26 -11 50 -18 53 -15 10 10 -211 438
-294 569 -20 32 -28 37 -61 36 -20 0 -41 -2 -47 -4z m61 -361 c-22 -6 -55 -13
-72 -17 l-31 -6 21 120 20 120 52 -103 52 -103 -42 -11z"/>
<path d="M595 10710 c-126 -18 -256 -43 -315 -60 -42 -12 -90 -54 -125 -109
-22 -35 -25 -52 -25 -125 0 -47 4 -87 8 -90 5 -3 14 -31 21 -63 21 -98 85
-293 97 -293 6 0 17 20 24 45 7 25 16 47 19 50 4 2 27 -12 50 -31 24 -19 46
-34 48 -34 8 0 -10 75 -42 183 -23 74 -29 110 -21 112 25 9 95 25 171 40 132
26 143 34 78 56 l-37 12 37 21 c20 12 37 25 37 29 0 15 -112 -9 -271 -57 l-46
-14 7 39 c13 72 24 78 225 120 186 38 185 38 185 47 0 5 -23 16 -50 26 l-50
18 47 34 c26 19 51 34 55 34 5 0 8 7 8 15 0 8 -3 14 -7 14 -5 -1 -62 -9 -128
-19z"/>
<path d="M5087 10690 c-46 -12 -109 -44 -126 -63 -23 -28 -31 -79 -20 -121 15
-56 100 -137 216 -205 103 -60 128 -83 120 -106 -5 -11 -21 -15 -60 -15 -92 0
-195 39 -259 98 -36 33 -45 23 -25 -27 l16 -40 -56 20 c-67 23 -63 22 -63 5 0
-29 80 -103 152 -140 126 -63 307 -83 387 -41 42 21 88 81 94 123 8 47 -19
107 -65 148 -20 18 -81 57 -136 88 -108 61 -148 96 -139 121 16 39 116 43 180
8 18 -10 53 -35 80 -56 l47 -39 0 41 0 41 55 -25 c77 -34 73 -11 -12 74 -58
57 -78 70 -138 89 -80 26 -192 36 -248 22z"/>
<path d="M2580 10124 c-169 -6 -553 -34 -670 -49 -63 -7 -164 -19 -225 -25
-60 -6 -195 -27 -300 -46 -104 -20 -235 -44 -290 -54 -182 -33 -526 -122 -842
-218 -56 -17 -65 -27 -33 -37 47 -15 171 -108 234 -176 113 -122 311 -399 397
-554 18 -33 40 -71 49 -85 15 -22 76 -129 204 -363 40 -73 267 -527 334 -667
81 -171 208 -448 276 -602 31 -71 80 -183 110 -250 30 -68 72 -166 94 -218 22
-52 57 -133 77 -180 20 -47 48 -114 62 -150 14 -36 39 -96 56 -135 35 -81 129
-313 162 -400 13 -33 39 -98 59 -145 50 -121 183 -460 301 -770 26 -69 67
-174 90 -235 23 -60 50 -136 59 -168 10 -33 22 -57 30 -57 8 0 27 37 45 88 42
113 120 315 182 467 26 66 82 206 123 310 41 105 88 222 104 260 89 209 122
291 122 297 0 5 23 61 51 125 130 300 229 531 254 593 12 30 36 84 52 120 16
36 58 128 92 205 35 77 86 190 113 250 48 105 66 145 153 330 53 114 316 641
379 760 346 658 675 1143 887 1310 32 25 59 50 59 55 0 5 -30 18 -67 29 -626
182 -1055 272 -1583 331 -363 41 -898 65 -1200 54z m870 -418 c283 -34 653
-100 800 -141 30 -8 87 -22 125 -29 39 -8 122 -31 185 -51 63 -20 132 -42 152
-48 l38 -12 -73 -75 c-190 -196 -382 -503 -641 -1025 -129 -260 -256 -525
-256 -534 0 -3 -22 -53 -49 -111 -46 -99 -67 -147 -189 -430 -94 -219 -134
-315 -167 -400 -18 -47 -45 -112 -60 -145 -15 -33 -34 -80 -42 -105 -8 -25
-32 -85 -52 -135 -21 -49 -58 -144 -84 -210 -25 -66 -71 -184 -102 -262 -30
-78 -55 -145 -55 -149 0 -4 -22 -64 -49 -133 -27 -69 -64 -167 -82 -217 l-33
-92 -42 122 c-68 193 -111 314 -149 411 -19 49 -59 158 -90 240 -31 83 -76
200 -101 261 -24 62 -44 115 -44 119 0 4 -20 55 -44 114 -24 58 -70 171 -101
251 -31 80 -79 198 -106 262 -127 305 -154 369 -190 448 -21 47 -51 117 -67
155 -106 250 -375 800 -494 1009 -188 328 -332 519 -462 613 l-30 21 125 40
c113 37 535 143 619 156 19 3 118 19 220 36 102 16 250 36 330 45 80 8 161 17
180 19 19 2 240 3 490 1 351 -2 486 -6 590 -19z"/>
<path d="M1330 9233 c0 -5 30 -55 66 -113 87 -138 218 -352 317 -520 44 -74
100 -168 124 -208 23 -40 43 -75 43 -78 0 -2 12 -23 27 -47 15 -23 46 -76 68
-117 23 -41 68 -122 100 -180 221 -400 409 -776 553 -1110 57 -131 139 -349
152 -401 6 -24 21 -79 33 -122 27 -88 31 -88 67 3 57 148 351 828 472 1095 28
61 73 160 100 220 123 271 447 923 542 1092 86 152 217 350 269 408 32 35 47
65 32 65 -2 0 -24 -13 -47 -29 -24 -16 -97 -64 -163 -107 -66 -42 -169 -110
-230 -149 -60 -40 -175 -115 -255 -167 -80 -52 -203 -133 -275 -180 -71 -47
-169 -110 -217 -141 l-88 -57 0 100 c0 62 4 100 10 100 6 0 38 -14 71 -31 76
-38 94 -33 86 22 -12 90 -176 313 -261 353 -149 70 -241 -86 -253 -431 l-6
-162 -126 119 c-386 363 -707 582 -1078 734 -113 46 -133 52 -133 39z"/>
<path d="M3994 4495 c-74 -16 -125 -41 -182 -90 -41 -36 -99 -121 -89 -131 4
-5 47 4 110 22 15 5 13 -4 -13 -56 -34 -67 -33 -82 2 -56 83 61 180 118 220
130 81 25 156 -6 192 -79 17 -34 18 -41 5 -64 -18 -32 -76 -75 -170 -126 -139
-76 -154 -85 -220 -139 -99 -81 -153 -204 -96 -220 61 -16 700 -1 694 17 -1 5
-26 22 -55 37 l-52 27 55 44 c30 24 55 47 55 51 0 9 -69 9 -228 0 -78 -5 -108
-4 -96 3 266 155 341 268 287 434 -33 103 -127 176 -257 200 -72 13 -84 13
-162 -4z"/>
<path d="M1207 4488 c-22 -17 -40 -172 -35 -312 4 -138 2 -136 158 -136 145 0
272 -16 328 -40 40 -18 43 -22 40 -52 -2 -27 -10 -37 -43 -53 -33 -16 -60 -20
-155 -20 -63 1 -155 7 -203 14 -48 7 -91 11 -94 7 -3 -3 15 -24 40 -47 26 -22
45 -44 42 -49 -3 -4 -28 -11 -55 -15 -28 -4 -50 -12 -50 -18 0 -12 76 -47 140
-65 162 -46 429 5 513 98 52 57 60 77 61 155 1 60 -3 77 -23 107 -54 79 -149
118 -337 139 -54 6 -118 13 -140 15 -38 4 -42 8 -46 35 -3 17 -3 42 0 55 l5
25 268 -3 c175 -2 269 1 269 7 0 6 -25 26 -56 46 l-55 36 55 29 c31 16 56 32
56 35 0 22 -654 28 -683 7z"/>
<path d="M2890 4482 c0 -7 26 -25 57 -41 l58 -29 -50 -31 c-27 -17 -53 -31
-57 -31 -4 0 -8 -4 -8 -10 0 -6 78 -10 214 -10 l215 0 -65 -96 c-35 -53 -64
-104 -64 -113 0 -12 23 -25 83 -45 45 -16 94 -35 109 -43 32 -16 61 -66 53
-92 -15 -48 -112 -91 -205 -91 -55 0 -157 31 -217 66 -47 27 -51 23 -29 -38
l13 -36 -40 14 c-41 15 -77 18 -77 8 0 -18 114 -114 169 -143 113 -60 252 -54
391 15 115 58 170 138 170 248 0 81 -41 131 -143 176 -47 21 -47 21 -33 48 8
15 44 72 80 126 36 55 66 107 66 116 0 25 -45 30 -387 37 -223 4 -303 3 -303
-5z"/>
<path d="M2290 4471 c-47 -10 -86 -31 -148 -80 -38 -31 -60 -59 -89 -118 -36
-73 -38 -82 -38 -173 1 -84 4 -104 32 -167 41 -96 97 -162 170 -199 54 -27 66
-29 168 -29 103 0 114 2 175 31 79 39 151 108 188 183 22 46 28 72 30 148 6
140 -33 238 -127 326 -75 70 -101 80 -221 83 -58 2 -121 -1 -140 -5z m245
-225 c35 -33 45 -52 55 -99 23 -111 -20 -210 -107 -249 -139 -61 -264 29 -264
192 0 72 21 120 72 164 78 67 170 64 244 -8z"/>
</g>
</svg>
